# xmcd CD database file
#
# Track frame offsets:
#	150
#	12530
#	25903
#	46547
#	70169
#
# Disc length: 1389 seconds
#
# Revision: 0
# Processed by: cddbd v1.5.2PL0 Copyright (c) Steve Scherf et al.
# Submitted via: CDex 1.70beta2
#
DISCID=35056b05
DTITLE=divers - Jazzmag n°641 - 09-2012 (1949-59 l'ascension d'un colosse)
DYEAR=2012
DGENRE=Jazz
TTITLE0=Jay Jay Johnson - Hilo
TTITLE1=Sonny Rollins - The Stopper
TTITLE2=Miles Davis - In your own sweet way
TTITLE3=Sonny Rollins - Strode Rode
TTITLE4=Sonny Rollins - St. Thomas
EXTD=YEAR: 2012
EXTT0=
EXTT1=
EXTT2=
EXTT3=
EXTT4=
PLAYORDER=
